<svg width="142" height="20" viewBox="0 0 142 20" fill="none" xmlns="http://www.w3.org/2000/svg">
<path fill-rule="evenodd" clip-rule="evenodd" d="M63.2332 4.51758C63.4523 4.51759 63.5621 4.62713 63.5621 4.84668V16.5176C63.5621 17.5998 63.2489 18.4468 62.6228 19.0586C62.0122 19.686 61.1666 20 60.0864 20H55.7651C55.5303 20 55.4128 19.89 55.4128 19.6704V18.7998C55.4128 18.5803 55.5303 18.4707 55.7651 18.4707H59.8751C61.1901 18.4706 61.8474 17.7957 61.8474 16.4468V14.6353H61.7537C61.3467 15.4666 60.5482 15.8823 59.3584 15.8823H58.0433C56.9787 15.8823 56.1488 15.5761 55.5538 14.9644C54.9589 14.3526 54.6614 13.4979 54.6614 12.3999V7.99951C54.6614 6.90159 54.9667 6.04679 55.5772 5.43506C56.2035 4.82329 57.0568 4.51758 58.137 4.51758H63.2332ZM58.3483 6.02344C57.0333 6.02347 56.3755 6.70563 56.3755 8.07031V12.3291C56.3755 13.6938 57.0333 14.3764 58.3483 14.3765H59.6634C60.3679 14.3765 60.9081 14.188 61.2838 13.8115C61.6596 13.435 61.8474 12.9016 61.8474 12.2114V6.23486C61.8474 6.09378 61.7692 6.02344 61.6127 6.02344H58.3483Z" fill="#0A0A0F"/>
<path fill-rule="evenodd" clip-rule="evenodd" d="M23.0943 1.38818C24.1746 1.38818 25.0201 1.70213 25.6307 2.32959C26.2569 2.94136 26.57 3.78825 26.57 4.87061V13.0356C26.5699 14.1179 26.2569 14.9727 25.6307 15.6001C25.0201 16.2118 24.1745 16.5181 23.0943 16.5181H17.3174C17.0982 16.5181 16.9886 16.4081 16.9885 16.1885V1.71777C16.9885 1.49816 17.0982 1.38818 17.3174 1.38818H23.0943ZM18.9379 2.89404C18.7813 2.89404 18.7027 2.96478 18.7027 3.10596V14.8003C18.7028 14.9414 18.7814 15.0117 18.9379 15.0117H22.883C24.1981 15.0117 24.8558 14.3296 24.8558 12.9648V4.94141C24.8558 3.57668 24.1981 2.89404 22.883 2.89404H18.9379Z" fill="#0A0A0F"/>
<path d="M51.6156 4.51758C51.8346 4.51765 51.9439 4.62762 51.9439 4.84717V16.1885C51.9439 16.408 51.8346 16.518 51.6156 16.5181H50.5587C50.3395 16.5181 50.2298 16.4081 50.2298 16.1885V4.84717C50.2298 4.62756 50.3317 4.51758 50.5352 4.51758H51.6156Z" fill="#0A0A0F"/>
<path fill-rule="evenodd" clip-rule="evenodd" d="M34.547 4.51758C35.6272 4.51759 36.4728 4.8233 37.0834 5.43506C37.6939 6.04678 37.9992 6.90163 37.9993 7.99951V10.9878C37.9993 11.2231 37.8895 11.3408 37.6704 11.3408H31.0245C30.8679 11.3408 30.7893 11.4116 30.7893 11.5527V12.9883C30.7894 14.3529 31.447 15.0351 32.7621 15.0352H37.5528C37.772 15.0352 37.8817 15.1451 37.8817 15.3647V16.2114C37.8817 16.4154 37.772 16.5176 37.5528 16.5176H32.5742C31.494 16.5176 30.6407 16.2118 30.0144 15.6001C29.4038 14.9883 29.0985 14.1332 29.0985 13.0352V7.99951C29.0986 6.90159 29.4039 6.04679 30.0144 5.43506C30.6407 4.82329 31.4939 4.51758 32.5742 4.51758H34.547ZM32.7621 6.02344C31.447 6.02345 30.7893 6.69784 30.7893 8.04687V9.8584C30.7893 10.0153 30.8679 10.0937 31.0245 10.0937H36.0967C36.2533 10.0937 36.3319 10.0153 36.3319 9.8584V8.04687C36.3319 6.69787 35.6742 6.02347 34.3591 6.02344H32.7621Z" fill="#0A0A0F"/>
<path d="M46.9039 4.51758C47.1231 4.51758 47.2327 4.62712 47.2328 4.84668V5.67041C47.2327 5.87426 47.123 5.97607 46.9039 5.97607H43.3579C42.7943 5.97608 42.3638 6.09382 42.0663 6.3291C41.7845 6.5644 41.6438 6.8391 41.6438 7.15283V7.55273C41.6438 8.21154 42.0898 8.7135 42.9822 9.05859L45.7533 10.3057C46.5674 10.6194 47.1154 11.0351 47.3972 11.5527C47.6947 12.0704 47.8437 12.7841 47.8437 13.6938C47.8437 15.5762 46.724 16.5176 44.4851 16.5176H40.3048C40.0857 16.5175 39.9764 16.4075 39.9764 16.188V15.3647C39.9764 15.1609 40.0857 15.0586 40.3048 15.0586H44.2504C45.4716 15.0586 46.0822 14.6037 46.0822 13.6938V13.2471C46.0822 12.4157 45.6827 11.843 44.8843 11.5293L42.1132 10.3525C41.3148 10.0231 40.7434 9.6389 40.399 9.19971C40.0546 8.74482 39.8823 8.14883 39.8823 7.41162C39.8823 5.48223 40.939 4.51763 43.0525 4.51758H46.9039Z" fill="#0A0A0F"/>
<path d="M67.7136 4.51758C67.9327 4.51758 68.0424 4.62712 68.0425 4.84668V5.76465H68.1366C68.528 4.93326 69.3265 4.51758 70.532 4.51758H71.847C72.9117 4.51758 73.7416 4.82328 74.3366 5.43506C74.9314 6.04678 75.229 6.90163 75.229 7.99951V16.188C75.229 16.4076 75.1193 16.5175 74.9001 16.5176H73.8432C73.624 16.5176 73.5144 16.4076 73.5144 16.188V8.07031C73.5144 6.7056 72.8567 6.02344 71.5416 6.02344H70.2265C69.5221 6.02346 68.9818 6.21143 68.606 6.58789C68.2303 6.96436 68.0425 7.49781 68.0425 8.18799V16.188C68.0425 16.4076 67.9328 16.5176 67.7136 16.5176H66.6572C66.438 16.5176 66.3283 16.4076 66.3283 16.188V4.84668C66.3283 4.62712 66.438 4.51758 66.6572 4.51758H67.7136Z" fill="#0A0A0F"/>
<path fill-rule="evenodd" clip-rule="evenodd" d="M83.0885 4.51758C84.1687 4.51759 85.0143 4.8233 85.6248 5.43506C86.2353 6.04678 86.5407 6.90163 86.5407 7.99951V10.9878C86.5407 11.2231 86.431 11.3408 86.2118 11.3408H79.5659C79.4094 11.3408 79.3307 11.4116 79.3307 11.5527V12.9883C79.3308 14.3529 79.9885 15.0351 81.3035 15.0352H86.0942C86.3134 15.0352 86.4231 15.1451 86.4231 15.3647V16.2114C86.4231 16.4154 86.3134 16.5176 86.0942 16.5176H81.1157C80.0355 16.5176 79.1821 16.2118 78.5559 15.6001C77.9453 14.9883 77.64 14.1332 77.64 13.0352V7.99951C77.64 6.90159 77.9454 6.04679 78.5559 5.43506C79.1821 4.82328 80.0354 4.51758 81.1157 4.51758H83.0885ZM81.3035 6.02344C79.9884 6.02345 79.3307 6.69784 79.3307 8.04687V9.8584C79.3307 10.0153 79.4094 10.0937 79.5659 10.0937H84.6382C84.7948 10.0937 84.8734 10.0153 84.8734 9.8584V8.04687C84.8734 6.69786 84.2157 6.02347 82.9006 6.02344H81.3035Z" fill="#0A0A0F"/>
<path d="M90.3502 4.51758C90.5692 4.51765 90.6785 4.62719 90.6786 4.84668V5.78809H90.7727C90.9293 5.44299 91.2268 5.14503 91.6652 4.89404C92.1035 4.64308 92.6201 4.5176 93.2149 4.51758H94.1308C94.3343 4.51758 94.4362 4.62712 94.4363 4.84668V5.71728C94.4363 5.82699 94.4129 5.91334 94.366 5.97607C94.319 6.02313 94.2404 6.03912 94.1308 6.02344H92.8626C92.1582 6.02347 91.6179 6.23519 91.2421 6.65869C90.8665 7.08221 90.6786 7.66275 90.6786 8.3999V16.188C90.6786 16.4075 90.5692 16.5175 90.3502 16.5176H89.2933C89.0741 16.5176 88.9644 16.4076 88.9644 16.188V4.84668C88.9644 4.62712 89.0741 4.51758 89.2933 4.51758H90.3502Z" fill="#0A0A0F"/>
<path d="M110.553 4.53027C110.881 4.53027 111.046 4.69436 111.046 5.02295V12.5337C111.046 13.0343 111.148 13.3942 111.351 13.6133C111.569 13.8166 111.921 13.9184 112.405 13.9185H113.273C114.351 13.9184 114.89 13.3238 114.89 12.1348V5.02295C114.89 4.69436 115.054 4.53027 115.383 4.53027H117.351C117.695 4.53028 117.867 4.69437 117.867 5.02295V16.0073C117.867 16.3358 117.695 16.5 117.351 16.5H115.383C115.054 16.5 114.89 16.3358 114.89 16.0073V15.2329H114.797C114.625 15.6553 114.32 15.9758 113.882 16.1948C113.445 16.3982 112.984 16.5 112.499 16.5H111.725C110.522 16.5 109.608 16.1713 108.983 15.5142C108.374 14.857 108.069 13.9104 108.069 12.6743V5.02295C108.069 4.69436 108.233 4.53027 108.561 4.53027H110.553Z" fill="#0A0A0F"/>
<path d="M122.472 4.53027C122.8 4.53027 122.964 4.69436 122.964 5.02295V5.79736H123.058C123.402 4.95246 124.168 4.5303 125.355 4.53027H126.105C128.559 4.53027 129.786 5.80547 129.786 8.35596V16.0073C129.786 16.3358 129.614 16.5 129.27 16.5H127.301C126.973 16.5 126.809 16.3358 126.809 16.0073V8.49658C126.809 7.99587 126.699 7.64384 126.481 7.44043C126.277 7.22138 125.926 7.11182 125.426 7.11182H124.582C123.504 7.11182 122.964 7.70638 122.964 8.89551V16.0073C122.964 16.3358 122.8 16.5 122.472 16.5H120.48C120.152 16.5 119.987 16.3358 119.987 16.0073V5.02295C119.987 4.69436 120.152 4.53027 120.48 4.53027H122.472Z" fill="#0A0A0F"/>
<path d="M134.273 0C134.601 0 134.765 0.164225 134.765 0.492676V16.0068C134.765 16.3354 134.601 16.5 134.273 16.5H132.28C131.952 16.5 131.788 16.3354 131.788 16.0068V0.492676C131.788 0.164225 131.952 0 132.28 0H134.273Z" fill="#0A0A0F"/>
<path d="M140.907 4.52979C141.094 4.52982 141.219 4.58484 141.282 4.69434C141.344 4.80385 141.321 4.94463 141.211 5.1167L138.094 10.2568V10.3506L141.352 15.9131C141.446 16.0695 141.453 16.2103 141.375 16.3354C141.297 16.445 141.157 16.5 140.954 16.5H138.937C138.672 16.5 138.476 16.4688 138.351 16.4062C138.242 16.3437 138.125 16.2102 138 16.0068L135.023 10.7729C134.882 10.5226 134.882 10.2645 135.023 9.99854L137.836 4.99902C138.008 4.68615 138.274 4.52979 138.633 4.52979H140.907Z" fill="#0A0A0F"/>
<path fill-rule="evenodd" clip-rule="evenodd" d="M102.671 1.4082C103.89 1.40823 104.836 1.7442 105.508 2.41699C106.18 3.07417 106.516 4.01342 106.516 5.23389V7.48682C106.516 8.70717 106.18 9.65385 105.508 10.3267C104.836 10.9838 103.89 11.3125 102.671 11.3125H99.7179C99.5303 11.3125 99.4363 11.3987 99.4363 11.5708V16.0068C99.4363 16.3354 99.2721 16.4995 98.944 16.4995H96.9517C96.6235 16.4995 96.4593 16.3354 96.4593 16.0068V1.90088C96.4593 1.57229 96.6235 1.4082 96.9517 1.4082H102.671ZM99.6944 3.98975C99.5225 3.98975 99.4363 4.07593 99.4363 4.24805V8.44922C99.4363 8.62131 99.5226 8.70752 99.6944 8.70752H102.179C102.679 8.70751 103.031 8.60575 103.234 8.40234C103.437 8.1833 103.539 7.83116 103.539 7.34619V5.37451C103.539 4.87389 103.437 4.52179 103.234 4.31836C103.031 4.09931 102.679 3.98976 102.179 3.98975H99.6944Z" fill="#0A0A0F"/>
<path d="M7.17924 10.9658C7.25239 10.9658 7.3311 10.9829 7.39101 11.0386C7.4525 11.0959 7.47296 11.1737 7.47298 11.2476V12.7061C7.47296 12.7815 7.45401 12.8611 7.39442 12.9209C7.3347 12.9806 7.25459 13 7.17924 13H6.60101C6.5248 13 6.44632 12.9767 6.38973 12.9116C6.33603 12.8496 6.31997 12.7694 6.31995 12.6938V11.2476C6.31998 11.176 6.33782 11.0993 6.39559 11.0415C6.45328 10.9839 6.52974 10.9658 6.60101 10.9658H7.17924Z" fill="#0A0A0F"/>
<path d="M4.64969 6.77783C4.7258 6.75096 4.82435 6.73256 4.90831 6.78174C4.99991 6.83574 5.02096 6.93643 5.02103 7.01611V7.4502C5.02101 7.52802 5.004 7.60408 4.96003 7.66846C4.91568 7.73325 4.85152 7.77442 4.77851 7.79736L4.779 7.79785L1.26575 8.96875L4.77949 10.1519C4.8498 10.1668 4.91318 10.2017 4.95808 10.2637C5.00484 10.3286 5.02099 10.408 5.02103 10.4873V10.9331C5.02103 11.0128 5.00004 11.1134 4.90831 11.1675C4.82427 11.2169 4.7259 11.1988 4.64969 11.1719L4.64872 11.1714L0.286916 9.59228L0.282036 9.59082C0.197577 9.55597 0.124942 9.5043 0.0741687 9.43262C0.0230223 9.3602 0 9.27544 0 9.18555V8.76367C6.5162e-05 8.6715 0.0221102 8.5843 0.0741687 8.51074C0.126285 8.43722 0.201034 8.38714 0.287892 8.35645L4.64872 6.77832L4.64969 6.77783Z" fill="#0A0A0F"/>
<path fill-rule="evenodd" clip-rule="evenodd" d="M7.20364 5C7.2789 5.00006 7.35867 5.01899 7.41833 5.07861C7.47797 5.13841 7.49689 5.21847 7.49689 5.29395V6.69189C7.49689 7.45772 7.47306 8.20374 7.42468 8.92969C7.3768 9.64801 7.34398 10.0669 7.3266 10.1714C7.31569 10.2368 7.28963 10.3022 7.23682 10.3511C7.18249 10.4012 7.11438 10.4204 7.047 10.4204H6.72203C6.6452 10.4204 6.56743 10.3976 6.50977 10.3359C6.45474 10.2769 6.43336 10.1991 6.42828 10.123C6.39592 9.80534 6.3599 9.25289 6.31995 8.46973V8.46875C6.28781 7.68106 6.27165 7.08826 6.27165 6.69189V5.29395C6.27165 5.21838 6.29089 5.13844 6.35069 5.07861C6.41041 5.01906 6.48964 5.00002 6.56491 5H7.20364ZM7.047 10.2954L7.07482 10.2935L7.07628 10.293C7.06704 10.2943 7.05721 10.2954 7.047 10.2954ZM7.18607 10.2105C7.18967 10.2024 7.19309 10.1938 7.19583 10.1846V10.1826C7.193 10.1925 7.1899 10.2019 7.18607 10.2105Z" fill="#0A0A0F"/>
<path d="M11.1843 8.53223C11.2597 8.53223 11.3398 8.55117 11.3995 8.61084C11.4593 8.67062 11.4786 8.75066 11.4786 8.82617V9.22363C11.4786 9.29912 11.4592 9.37867 11.3995 9.43848C11.3398 9.49826 11.2598 9.51758 11.1843 9.51758H8.72653C8.65123 9.51753 8.57202 9.49814 8.51232 9.43848C8.45264 9.37867 8.43327 9.29913 8.43327 9.22363V8.82617C8.4333 8.75064 8.45255 8.67063 8.51232 8.61084C8.572 8.55129 8.65129 8.53227 8.72653 8.53223H11.1843Z" fill="#0A0A0F"/>
<path d="M14.6961 8.53223C14.7714 8.53227 14.8511 8.55118 14.9108 8.61084C14.9706 8.67063 14.9899 8.75065 14.9899 8.82617V9.22363C14.9899 9.29908 14.9704 9.37868 14.9108 9.43848C14.8511 9.49816 14.7714 9.51754 14.6961 9.51758H12.2383C12.1629 9.51756 12.0834 9.49823 12.0236 9.43848C11.9788 9.39362 11.9566 9.33781 11.9485 9.28076L11.9446 9.22363V8.82617C11.9446 8.75065 11.9639 8.67063 12.0236 8.61084C12.0833 8.55129 12.1631 8.53224 12.2383 8.53223H14.6961Z" fill="#0A0A0F"/>
<path d="M51.6156 0C51.8346 6.73196e-05 51.9439 0.110046 51.9439 0.32959V2.54102C51.9439 2.76056 51.8346 2.87054 51.6156 2.87061H50.5352C50.3317 2.87061 50.2298 2.76063 50.2298 2.54102V0.32959C50.2298 0.109978 50.3317 0 50.5352 0H51.6156Z" fill="#0A0A0F"/>
</svg>
